<svg width="720" height="110" viewBox="0 0 720 110" fill="none" xmlns="http://www.w3.org/2000/svg">
<g clip-path="url(#clip0_2670_4306)">
<path fill-rule="evenodd" clip-rule="evenodd" d="M1440 0H0V900H1440V0ZM11 27V305.848C11 307.956 11.6662 310.01 12.9034 311.717L42.8288 353C46.7879 358.462 48.9198 365.035 48.9198 371.781V528.083C48.9198 534.591 46.9352 540.945 43.2309 546.296L12.7778 590.289C11.6202 591.961 11 593.947 11 595.981V871C11 879.284 17.7157 886 26 886H1414C1422.28 886 1429 879.284 1429 871V598.742C1429 596.833 1428.45 594.963 1427.42 593.355L1397.12 545.961C1393.83 540.813 1392.08 534.831 1392.08 528.721V369.249C1392.08 362.543 1394.19 356.006 1398.1 350.562L1427.05 310.318C1428.32 308.561 1428.98 306.44 1428.93 304.276L1424.3 75.7478C1424.13 67.5838 1417.47 61.0519 1409.3 61.0519H1269.24C1264.87 61.0519 1260.62 59.6186 1257.13 56.9714L1198.54 12.4081C1198.19 12.1433 1197.76 12 1197.33 12H1058.94C1056.97 12 1055.04 12.5837 1053.4 13.6776L1026.98 31.2749C1026.65 31.4937 1026.27 31.6104 1025.87 31.6104H1012.68C1012.24 31.6104 1011.82 31.7526 1011.47 32.0154L981.657 54.572C976.099 58.7767 969.32 61.0519 962.351 61.0519H475.856C468.749 61.0519 461.845 58.6862 456.231 54.3279L427.513 32.0306C427.162 31.7582 426.731 31.6104 426.287 31.6104H415.103C414.709 31.6104 414.323 31.4937 413.995 31.2749L387.579 13.6776C385.937 12.5837 384.008 12 382.035 12H26C17.7157 12 11 18.7157 11 27Z" fill="#F4F9FB"/>
</g>
<defs>
<clipPath id="clip0_2670_4306">
<rect width="720" height="110" fill="white"/>
</clipPath>
</defs>
</svg>
