<svg width="100" height="53" viewBox="0 0 100 53" fill="none" xmlns="http://www.w3.org/2000/svg">
<g clip-path="url(#clip0_2670_4301)">
<path fill-rule="evenodd" clip-rule="evenodd" d="M-1340 -847H100V53H-1340V-847ZM89 -820V-541.152C89 -539.044 88.3338 -536.99 87.0966 -535.283L57.1712 -494C53.2121 -488.538 51.0802 -481.965 51.0802 -475.219V-318.917C51.0802 -312.409 53.0648 -306.055 56.7691 -300.704L87.2222 -256.711C88.3798 -255.039 89 -253.053 89 -251.019V24C89 32.2842 82.2843 39 74 39H-1314C-1322.28 39 -1329 32.2843 -1329 24V-248.258C-1329 -250.167 -1328.45 -252.037 -1327.42 -253.645L-1297.12 -301.039C-1293.83 -306.187 -1292.08 -312.169 -1292.08 -318.279V-477.751C-1292.08 -484.457 -1294.19 -490.994 -1298.1 -496.438L-1327.05 -536.682C-1328.32 -538.439 -1328.98 -540.56 -1328.93 -542.724L-1324.3 -771.252C-1324.13 -779.416 -1317.47 -785.948 -1309.3 -785.948H-1169.24C-1164.87 -785.948 -1160.62 -787.381 -1157.13 -790.029L-1098.54 -834.592C-1098.19 -834.857 -1097.76 -835 -1097.33 -835H-958.942C-956.969 -835 -955.04 -834.416 -953.398 -833.322L-926.982 -815.725C-926.654 -815.506 -926.268 -815.39 -925.873 -815.39H-912.68C-912.245 -815.39 -911.821 -815.247 -911.474 -814.985L-881.657 -792.428C-876.099 -788.223 -869.32 -785.948 -862.351 -785.948H-375.856C-368.749 -785.948 -361.845 -788.314 -356.231 -792.672L-327.513 -814.969C-327.162 -815.242 -326.731 -815.39 -326.287 -815.39H-315.103C-314.709 -815.39 -314.323 -815.506 -313.995 -815.725L-287.579 -833.322C-285.937 -834.416 -284.008 -835 -282.035 -835H74C82.2843 -835 89 -828.284 89 -820Z" fill="#F4F9FB"/>
</g>
<defs>
<clipPath id="clip0_2670_4301">
<rect width="100" height="53" fill="white" transform="matrix(-1 0 0 1 100 0)"/>
</clipPath>
</defs>
</svg>
