<svg width="90" height="431" viewBox="0 0 90 431" fill="none" xmlns="http://www.w3.org/2000/svg">
<g clip-path="url(#clip0_2670_4156)">
<path fill-rule="evenodd" clip-rule="evenodd" d="M90 -235H-1350V665H90V-235ZM-1339 -208V70.8477C-1339 72.9558 -1338.33 75.0099 -1337.1 76.7168L-1307.17 118C-1303.21 123.462 -1301.08 130.035 -1301.08 136.781V293.083C-1301.08 299.591 -1303.06 305.945 -1306.77 311.296L-1337.22 355.289C-1338.38 356.961 -1339 358.947 -1339 360.981V636C-1339 644.284 -1332.28 651 -1324 651H64C72.2843 651 79 644.284 79 636V363.742C79 361.833 78.4534 359.963 77.4248 358.355L47.1187 310.961C43.8273 305.813 42.0781 299.831 42.0781 293.721V134.249C42.0781 127.543 44.1851 121.006 48.1013 115.562L77.0521 75.3181C78.3165 73.5605 78.9763 71.4402 78.9324 69.2756L74.298 -159.252C74.1324 -167.416 67.4668 -173.948 59.3011 -173.948H-80.759C-85.1321 -173.948 -89.3848 -175.381 -92.8656 -178.029L-151.463 -222.592C-151.812 -222.857 -152.237 -223 -152.674 -223H-291.058C-293.031 -223 -294.96 -222.416 -296.602 -221.322L-323.018 -203.725C-323.346 -203.506 -323.732 -203.39 -324.127 -203.39H-337.32C-337.755 -203.39 -338.179 -203.247 -338.526 -202.985L-368.343 -180.428C-373.901 -176.223 -380.68 -173.948 -387.649 -173.948H-874.144C-881.251 -173.948 -888.155 -176.314 -893.769 -180.672L-922.487 -202.969C-922.838 -203.242 -923.269 -203.39 -923.713 -203.39H-934.897C-935.291 -203.39 -935.677 -203.506 -936.005 -203.725L-962.421 -221.322C-964.063 -222.416 -965.992 -223 -967.965 -223H-1324C-1332.28 -223 -1339 -216.284 -1339 -208Z" fill="#F4F9FB"/>
</g>
<defs>
<clipPath id="clip0_2670_4156">
<rect width="90" height="431" fill="white"/>
</clipPath>
</defs>
</svg>
