<svg width="100" height="53" viewBox="0 0 100 53" fill="none" xmlns="http://www.w3.org/2000/svg">
<g clip-path="url(#clip0_2670_4296)">
<path fill-rule="evenodd" clip-rule="evenodd" d="M1440 -847H0V53H1440V-847ZM11 -820V-541.152C11 -539.044 11.6662 -536.99 12.9034 -535.283L42.8288 -494C46.7879 -488.538 48.9198 -481.965 48.9198 -475.219V-318.917C48.9198 -312.409 46.9352 -306.055 43.2309 -300.704L12.7778 -256.711C11.6202 -255.039 11 -253.053 11 -251.019V24C11 32.2842 17.7157 39 26 39H1414C1422.28 39 1429 32.2843 1429 24V-248.258C1429 -250.167 1428.45 -252.037 1427.42 -253.645L1397.12 -301.039C1393.83 -306.187 1392.08 -312.169 1392.08 -318.279V-477.751C1392.08 -484.457 1394.19 -490.994 1398.1 -496.438L1427.05 -536.682C1428.32 -538.439 1428.98 -540.56 1428.93 -542.724L1424.3 -771.252C1424.13 -779.416 1417.47 -785.948 1409.3 -785.948H1269.24C1264.87 -785.948 1260.62 -787.381 1257.13 -790.029L1198.54 -834.592C1198.19 -834.857 1197.76 -835 1197.33 -835H1058.94C1056.97 -835 1055.04 -834.416 1053.4 -833.322L1026.98 -815.725C1026.65 -815.506 1026.27 -815.39 1025.87 -815.39H1012.68C1012.24 -815.39 1011.82 -815.247 1011.47 -814.985L981.657 -792.428C976.099 -788.223 969.32 -785.948 962.351 -785.948H475.856C468.749 -785.948 461.845 -788.314 456.231 -792.672L427.513 -814.969C427.162 -815.242 426.731 -815.39 426.287 -815.39H415.103C414.709 -815.39 414.323 -815.506 413.995 -815.725L387.579 -833.322C385.937 -834.416 384.008 -835 382.035 -835H26C17.7157 -835 11 -828.284 11 -820Z" fill="#F4F9FB"/>
</g>
<defs>
<clipPath id="clip0_2670_4296">
<rect width="100" height="53" fill="white"/>
</clipPath>
</defs>
</svg>
