<svg width="90" height="431" viewBox="0 0 90 431" fill="none" xmlns="http://www.w3.org/2000/svg">
<g clip-path="url(#clip0_2670_4291)">
<path fill-rule="evenodd" clip-rule="evenodd" d="M1440 -235H0V665H1440V-235ZM11 -208V70.8477C11 72.9558 11.6662 75.0099 12.9034 76.7168L42.8288 118C46.7879 123.462 48.9198 130.035 48.9198 136.781V293.083C48.9198 299.591 46.9352 305.945 43.2309 311.296L12.7778 355.289C11.6202 356.961 11 358.947 11 360.981V636C11 644.284 17.7157 651 26 651H1414C1422.28 651 1429 644.284 1429 636V363.742C1429 361.833 1428.45 359.963 1427.42 358.355L1397.12 310.961C1393.83 305.813 1392.08 299.831 1392.08 293.721V134.249C1392.08 127.543 1394.19 121.006 1398.1 115.562L1427.05 75.3181C1428.32 73.5605 1428.98 71.4402 1428.93 69.2756L1424.3 -159.252C1424.13 -167.416 1417.47 -173.948 1409.3 -173.948H1269.24C1264.87 -173.948 1260.62 -175.381 1257.13 -178.029L1198.54 -222.592C1198.19 -222.857 1197.76 -223 1197.33 -223H1058.94C1056.97 -223 1055.04 -222.416 1053.4 -221.322L1026.98 -203.725C1026.65 -203.506 1026.27 -203.39 1025.87 -203.39H1012.68C1012.24 -203.39 1011.82 -203.247 1011.47 -202.985L981.657 -180.428C976.099 -176.223 969.32 -173.948 962.351 -173.948H475.856C468.749 -173.948 461.845 -176.314 456.231 -180.672L427.513 -202.969C427.162 -203.242 426.731 -203.39 426.287 -203.39H415.103C414.709 -203.39 414.323 -203.506 413.995 -203.725L387.579 -221.322C385.937 -222.416 384.008 -223 382.035 -223H26C17.7157 -223 11 -216.284 11 -208Z" fill="#F4F9FB"/>
</g>
<defs>
<clipPath id="clip0_2670_4291">
<rect width="90" height="431" fill="white"/>
</clipPath>
</defs>
</svg>
