<svg width="216" height="67" viewBox="0 0 216 67" fill="none" xmlns="http://www.w3.org/2000/svg">
<g clip-path="url(#clip0_3079_703)">
<path fill-rule="evenodd" clip-rule="evenodd" d="M-174 0H216V844H-174V0ZM204.868 22.17V288.004V518.199V821.83C204.868 825.79 201.658 829 197.698 829H-155.698C-159.658 829 -162.868 825.79 -162.868 821.83V520.601V286.803V22.17C-162.868 18.2101 -159.658 15 -155.698 15H-106.722C-104.967 15 -103.259 15.5692 -101.855 16.6222L-80.5702 32.5838C-80.2894 32.7944 -79.9478 32.9082 -79.5968 32.9082H-69.0397C-68.6285 32.9082 -68.2327 33.0643 -67.9323 33.3449L-45.7114 54.0996C-43.8594 55.8294 -41.4198 56.7916 -38.8856 56.7916H81.4164C83.9554 56.7916 86.3993 55.8258 88.2524 54.0902L110.4 33.3465C110.701 33.0649 111.097 32.9082 111.509 32.9082H122.33C122.679 32.9082 123.02 32.7952 123.3 32.5861L144.71 16.6105C146.111 15.5649 147.813 15 149.561 15H197.698C201.658 15 204.868 18.2101 204.868 22.17Z" fill="#F4F9FB"/>
</g>
<defs>
<clipPath id="clip0_3079_703">
<rect width="216" height="67" fill="white" transform="matrix(-1 0 0 1 216 0)"/>
</clipPath>
</defs>
</svg>
