<svg width="216" height="67" viewBox="0 0 216 67" fill="none" xmlns="http://www.w3.org/2000/svg">
<g clip-path="url(#clip0_3079_699)">
<path fill-rule="evenodd" clip-rule="evenodd" d="M390 0H0V844H390V0ZM11.1318 22.17V288.004V518.199V821.83C11.1318 825.79 14.342 829 18.3018 829H371.698C375.658 829 378.868 825.79 378.868 821.83V520.601V286.803V22.17C378.868 18.2101 375.658 15 371.698 15H322.722C320.967 15 319.259 15.5692 317.855 16.6222L296.57 32.5838C296.289 32.7944 295.948 32.9082 295.597 32.9082H285.04C284.629 32.9082 284.233 33.0643 283.932 33.3449L261.711 54.0996C259.859 55.8294 257.42 56.7916 254.886 56.7916H134.584C132.045 56.7916 129.601 55.8258 127.748 54.0902L105.6 33.3465C105.299 33.0649 104.903 32.9082 104.491 32.9082H93.6704C93.3208 32.9082 92.9804 32.7952 92.7002 32.5861L71.2902 16.6105C69.8889 15.5649 68.1873 15 66.4388 15H18.3018C14.342 15 11.1318 18.2101 11.1318 22.17Z" fill="#F4F9FB"/>
</g>
<defs>
<clipPath id="clip0_3079_699">
<rect width="216" height="67" fill="white"/>
</clipPath>
</defs>
</svg>
