<svg width="720" height="65" viewBox="0 0 720 65" fill="none" xmlns="http://www.w3.org/2000/svg">
<g clip-path="url(#clip0_3079_635)">
<path fill-rule="evenodd" clip-rule="evenodd" d="M-720 0H720V900H-720V0ZM709 27V305.848C709 307.956 708.334 310.01 707.097 311.717L677.171 353C673.212 358.462 671.08 365.035 671.08 371.781V528.083C671.08 534.591 673.065 540.945 676.769 546.296L707.222 590.289C708.38 591.961 709 593.947 709 595.981V871C709 879.284 702.284 886 694 886H-694C-702.284 886 -709 879.284 -709 871V598.742C-709 596.833 -708.453 594.963 -707.425 593.355L-677.119 545.961C-673.827 540.813 -672.078 534.831 -672.078 528.721V369.249C-672.078 362.543 -674.185 356.006 -678.101 350.562L-707.052 310.318C-708.317 308.561 -708.976 306.44 -708.932 304.276L-704.298 75.7478C-704.132 67.5838 -697.467 61.0519 -689.301 61.0519H-549.241C-544.868 61.0519 -540.615 59.6186 -537.134 56.9714L-478.537 12.4081C-478.188 12.1433 -477.763 12 -477.326 12H-338.942C-336.969 12 -335.04 12.5837 -333.398 13.6776L-306.982 31.2749C-306.654 31.4937 -306.268 31.6104 -305.873 31.6104H-292.68C-292.245 31.6104 -291.821 31.7526 -291.474 32.0154L-261.657 54.572C-256.099 58.7767 -249.32 61.0519 -242.351 61.0519H244.144C251.251 61.0519 258.155 58.6862 263.769 54.3279L292.487 32.0306C292.838 31.7582 293.269 31.6104 293.713 31.6104H304.897C305.291 31.6104 305.677 31.4937 306.005 31.2749L332.421 13.6776C334.063 12.5837 335.992 12 337.965 12H694C702.284 12 709 18.7157 709 27Z" fill="#F4F9FB"/>
</g>
<defs>
<clipPath id="clip0_3079_635">
<rect width="720" height="65" fill="white" transform="matrix(-1 0 0 1 720 0)"/>
</clipPath>
</defs>
</svg>
