<svg width="61" height="61" viewBox="0 0 61 61" fill="none" xmlns="http://www.w3.org/2000/svg">
<path d="M6.9 12.8C8.46478 12.8 9.96547 12.1784 11.0719 11.0719C12.1784 9.96547 12.8 8.46478 12.8 6.9C12.8 5.33522 12.1784 3.83453 11.0719 2.72807C9.96547 1.62161 8.46478 1 6.9 1C5.33522 1 3.83453 1.62161 2.72807 2.72807C1.62161 3.83453 1 5.33522 1 6.9C1 8.46478 1.62161 9.96547 2.72807 11.0719C3.83453 12.1784 5.33522 12.8 6.9 12.8ZM9.85 57.05C12.1972 57.05 14.4482 56.1176 16.1079 54.4579C17.7676 52.7982 18.7 50.5472 18.7 48.2C18.7 45.8528 17.7676 43.6018 16.1079 41.9421C14.4482 40.2824 12.1972 39.35 9.85 39.35C7.50283 39.35 5.2518 40.2824 3.59211 41.9421C1.93241 43.6018 1 45.8528 1 48.2C1 50.5472 1.93241 52.7982 3.59211 54.4579C5.2518 56.1176 7.50283 57.05 9.85 57.05ZM51.15 60C53.4972 60 55.7482 59.0676 57.4079 57.4079C59.0676 55.7482 60 53.4972 60 51.15C60 48.8028 59.0676 46.5518 57.4079 44.8921C55.7482 43.2324 53.4972 42.3 51.15 42.3C48.8028 42.3 46.5518 43.2324 44.8921 44.8921C43.2324 46.5518 42.3 48.8028 42.3 51.15C42.3 53.4972 43.2324 55.7482 44.8921 57.4079C46.5518 59.0676 48.8028 60 51.15 60ZM27.55 36.4C30.6796 36.4 33.6809 35.1568 35.8939 32.9439C38.1068 30.7309 39.35 27.7296 39.35 24.6C39.35 21.4704 38.1068 18.4691 35.8939 16.2561C33.6809 14.0432 30.6796 12.8 27.55 12.8C24.4204 12.8 21.4191 14.0432 19.2061 16.2561C16.9932 18.4691 15.75 21.4704 15.75 24.6C15.75 27.7296 16.9932 30.7309 19.2061 32.9439C21.4191 35.1568 24.4204 36.4 27.55 36.4ZM45.25 12.8C46.8148 12.8 48.3155 12.1784 49.4219 11.0719C50.5284 9.96547 51.15 8.46478 51.15 6.9C51.15 5.33522 50.5284 3.83453 49.4219 2.72807C48.3155 1.62161 46.8148 1 45.25 1C43.6852 1 42.1845 1.62161 41.0781 2.72807C39.9716 3.83453 39.35 5.33522 39.35 6.9C39.35 8.46478 39.9716 9.96547 41.0781 11.0719C42.1845 12.1784 43.6852 12.8 45.25 12.8Z" stroke="#D9D9D9" stroke-width="2" stroke-linecap="round" stroke-linejoin="round"/>
<path d="M11.325 11.325L17.225 17.225M39.35 12.8L36.4 15.75M45.25 44.5125L36.4 33.45M15.75 40.825L21.65 34.925" stroke="#D9D9D9" stroke-width="2" stroke-linecap="round" stroke-linejoin="round"/>
</svg>
