<svg width="1440" height="900" viewBox="0 0 1440 900" fill="none" xmlns="http://www.w3.org/2000/svg">
<path fill-rule="evenodd" clip-rule="evenodd" d="M0 0H1440V900H0V0ZM1429 27V305.848C1429 307.956 1428.33 310.01 1427.1 311.717L1397.17 353C1393.21 358.462 1391.08 365.035 1391.08 371.781V528.083C1391.08 534.591 1393.07 540.945 1396.77 546.296L1427.22 590.289C1428.38 591.961 1429 593.947 1429 595.981V871C1429 879.284 1422.28 886 1414 886H26C17.716 886 11 879.284 11 871V598.742C11 596.833 11.547 594.963 12.575 593.355L42.881 545.961C46.173 540.813 47.922 534.831 47.922 528.721V369.249C47.922 362.543 45.815 356.006 41.899 350.562L12.948 310.318C11.683 308.561 11.024 306.44 11.068 304.276L15.702 75.7478C15.868 67.5838 22.533 61.0519 30.699 61.0519H170.759C175.132 61.0519 179.385 59.6186 182.866 56.9714L241.463 12.4081C241.812 12.1433 242.237 12 242.674 12H381.058C383.031 12 384.96 12.5837 386.602 13.6776L413.018 31.2749C413.346 31.4937 413.732 31.6104 414.127 31.6104H427.32C427.755 31.6104 428.179 31.7526 428.526 32.0154L458.343 54.572C463.901 58.7767 470.68 61.0519 477.649 61.0519H964.144C971.251 61.0519 978.155 58.6862 983.769 54.3279L1012.49 32.0306C1012.84 31.7582 1013.27 31.6104 1013.71 31.6104H1024.9C1025.29 31.6104 1025.68 31.4937 1026.01 31.2749L1052.42 13.6776C1054.06 12.5837 1055.99 12 1057.96 12H1414C1422.28 12 1429 18.7157 1429 27Z" fill="white"/>
</svg>
